<svg id="Layer_1" data-name="Layer 1" xmlns="http://www.w3.org/2000/svg" xmlns:xlink="http://www.w3.org/1999/xlink" viewBox="0 0 481.89 393.28"><defs><style>.cls-1{fill:#e6e7e8;}.cls-2{fill:#8180bd;opacity:0.47;isolation:isolate;}.cls-3{fill:#393431;}.cls-4{fill:#bcbec0;}.cls-5{fill:#808285;}.cls-6{fill:#fff;}.cls-7{fill:#020202;}.cls-8{fill:none;stroke:#231f20;stroke-width:0.5px;}.cls-17,.cls-8,.cls-9{stroke-miterlimit:10;}.cls-20,.cls-9{fill:#606161;}.cls-9{stroke:#6d6e71;}.cls-17,.cls-9{stroke-width:4px;}.cls-10{fill:url(#linear-gradient);}.cls-11{fill:url(#linear-gradient-2);}.cls-12{fill:#58595b;}.cls-13{fill:url(#linear-gradient-3);}.cls-14{fill:url(#linear-gradient-4);}.cls-15{fill:#f8e2d8;}.cls-16{fill:#184275;}.cls-17{fill:#ecb129;stroke:#fbb040;}.cls-18{fill:#febc18;}.cls-19{fill:#ffcd60;}</style><linearGradient id="linear-gradient" x1="74.13" y1="286.26" x2="74.13" y2="201.29" gradientUnits="userSpaceOnUse"><stop offset="0" stop-color="#989898"/><stop offset="0.97" stop-color="#d1d1d1"/><stop offset="1" stop-color="#d3d3d3"/></linearGradient><linearGradient id="linear-gradient-2" x1="78.61" y1="286.35" x2="78.61" y2="201.29" gradientUnits="userSpaceOnUse"><stop offset="0" stop-color="#b0b0b0"/><stop offset="0.1" stop-color="#b6b6b6"/><stop offset="0.56" stop-color="#cbcbcb"/><stop offset="0.87" stop-color="#d3d3d3"/></linearGradient><linearGradient id="linear-gradient-3" x1="132.88" y1="223.11" x2="132.88" y2="93.4" xlink:href="#linear-gradient"/><linearGradient id="linear-gradient-4" x1="139.57" y1="223.26" x2="139.57" y2="93.4" xlink:href="#linear-gradient-2"/></defs><title>CL, EJO, AC 2</title><polygon class="cls-1" points="68.81 239.8 68.93 247.91 74.38 257.14 78.98 247.9 78.98 238.66 68.81 239.8"/><path class="cls-2" d="M68.81,244.67c4.42,4.42,6.49,4.17,10.15,0l.22-3.55-10.37,1Z"/><path class="cls-1" d="M65.34,232.29a77.15,77.15,0,0,0,1.74,8c1.11,3.95,4.88,5.89,6.74,5.89,2.26,0,5.49-2.6,6.63-6a64.3,64.3,0,0,0,1.87-7.87Z"/><path class="cls-1" d="M80.94,235.14c1.83-1.41,2.17-.26,1.72,1.28s-1.41,3.89-2,3.16S80.94,235.14,80.94,235.14Z"/><path class="cls-1" d="M66.27,235c-1.65-1.47-1.94-.28-1.55,1.32s1.26,4,1.81,3.26S66.27,235,66.27,235Z"/><path class="cls-3" d="M79.47,245.89l9.24,4.81a8.09,8.09,0,0,1,4.22,5.75l2.47,13.91H74.11s-1.23-11-1.23-15.44c0-.66,3.26-2.94,3.26-2.94l2.52-3.16Z"/><path class="cls-3" d="M68,246.27l-8.45,4.43a8.09,8.09,0,0,0-4.22,5.75l-2.47,13.91H74.15V254.45c0-.67-2-2.45-2-2.45L69.28,249Z"/><path class="cls-4" d="M75.25,254.25c.43-.91.76-1.7.76-1.7l-2-2.09-2,2.09s.33.79.76,1.7a125.41,125.41,0,0,0-2,16.7c1,.1,2.16.15,3.31.15s2.19-.05,3.2-.14A125.69,125.69,0,0,0,75.25,254.25Z"/><path class="cls-5" d="M72.73,254.12A5.75,5.75,0,0,1,74,254a5.57,5.57,0,0,1,1.25.12h0c.39-.77.7-1.45.74-1.54a7.09,7.09,0,0,0-1.86-.25,7.28,7.28,0,0,0-2.07.25,8.42,8.42,0,0,0,.68,1.54Z"/><path class="cls-6" d="M74,250.46l-2.47,3.36L68,246.38l.87-1.71Z"/><path class="cls-6" d="M73.9,250.46l2.47,3.36,3.5-7.44L79,244.67Z"/><path class="cls-7" d="M66.64,233.9c1,0,2.25.11,3.74.12,2,0,3,0,3.76,0,2.46-.22,3.57-.78,5.31-.21a7.06,7.06,0,0,1,1.08.47h0a2,2,0,0,0,.33.1.73.73,0,0,0,.29,0l-.1-.21c.09.93.17,1.86.25,2.79a4.73,4.73,0,0,0,.92-1.36,6.78,6.78,0,0,0,.46-2c.08-.69.16-1.49.17-1.76,0-1.68-2.17-5.8-6.23-7.1a9.93,9.93,0,0,0-10.22,3.1,4.86,4.86,0,0,0-1,1.42,6.15,6.15,0,0,0-.44,2.87,11.26,11.26,0,0,0,.46,3,6.29,6.29,0,0,0,.43,1.16,5.23,5.23,0,0,0,.68,1.06.28.28,0,0,0,0-.08C66.53,236.06,66.58,235,66.64,233.9Z"/><ellipse class="cls-8" cx="70.52" cy="235.88" rx="2.05" ry="1.35"/><ellipse class="cls-8" cx="77.14" cy="235.88" rx="2.05" ry="1.35"/><line class="cls-8" x1="66.09" y1="235.88" x2="68.47" y2="235.88"/><path class="cls-8" d="M72.56,235.88a3.28,3.28,0,0,1,1.25-.27,3.18,3.18,0,0,1,1.28.27"/><line class="cls-8" x1="79.19" y1="235.88" x2="81.2" y2="235.88"/><path class="cls-9" d="M74.29,218.51c-14.29,0-25.88,11.34-25.88,25.34S60,269.2,74.29,269.2s25.89-11.35,25.89-25.35S88.59,218.51,74.29,218.51Zm0,49.92c-13.86,0-25.1-11-25.1-24.58s11.24-24.57,25.1-24.57,25.11,11,25.11,24.57S88.16,268.43,74.29,268.43Z"/><path class="cls-10" d="M108.74,237.31h-2.51a30.34,30.34,0,0,0-4.49-10.71l1.79-1.77a43.79,43.79,0,0,0,5.56-7.08l-.42-.41-7.22-7.08-.41-.4a36.91,36.91,0,0,0-7.14,5.52L92,217.12a32,32,0,0,0-11-4.44v-2.42a36.56,36.56,0,0,0-.93-9H68.74a38.46,38.46,0,0,0-1.21,9v2.39a31.36,31.36,0,0,0-10.86,4.4L55,215.34a41.82,41.82,0,0,0-7.22-5.53l-.41.41-7.21,7.07-.42.4a41.58,41.58,0,0,0,5.65,7.08l1.73,1.72a28.45,28.45,0,0,0-4.57,10.82H40.12a41.17,41.17,0,0,0-9.38,1v11.14c3.15.79,6.87.82,9.38,1.13h2.41a33,33,0,0,0,4.54,10.67l-1.68,1.66A37.6,37.6,0,0,0,39.65,270l.41.4,7.22,7.08.42.4A47.68,47.68,0,0,0,55,272.32l1.65-1.67a31.55,31.55,0,0,0,10.86,4.4v2.39a35.3,35.3,0,0,0,1.21,8.82H80.12a34,34,0,0,0,.93-8.82V275a32.15,32.15,0,0,0,11-4.44l1.78,1.69a41.73,41.73,0,0,0,7.25,5.53l.43-.41,7.22-7.07.42-.4a41.16,41.16,0,0,0-5.64-7.08l-1.75-1.73a32.39,32.39,0,0,0,4.46-10.56h2.54c2.51-.31,6.27-.34,8.78-1.13V238.28A33.27,33.27,0,0,0,108.74,237.31Zm-8.59,13.27a26,26,0,0,1-2.7,6.36,26.66,26.66,0,0,1-16.21,12.15,27.24,27.24,0,0,1-13.62,0,26.71,26.71,0,0,1-16.27-12.07,25.45,25.45,0,0,1-2.76-6.47,25.58,25.58,0,0,1,2.76-19.93,26.71,26.71,0,0,1,16.27-12.07,27.24,27.24,0,0,1,13.62,0,26.66,26.66,0,0,1,16.21,12.15,25.73,25.73,0,0,1,2.7,19.82Z"/><path class="cls-11" d="M61,221.25a26.62,26.62,0,0,1,6.62-2.67,27.24,27.24,0,0,1,13.62,0,26.66,26.66,0,0,1,16.21,12.15,25.55,25.55,0,0,1,3.38,9.8,153.14,153.14,0,0,1,15.1,9.25,8.77,8.77,0,0,0,1.59-.39V238.28a33.27,33.27,0,0,0-8.78-1h-2.51a30.34,30.34,0,0,0-4.49-10.71l1.79-1.77a43.79,43.79,0,0,0,5.56-7.08l-.42-.41-7.22-7.08-.41-.4a36.91,36.91,0,0,0-7.14,5.52L92,217.12a32,32,0,0,0-11-4.44v-2.42a36.56,36.56,0,0,0-.93-9H68.74a38.46,38.46,0,0,0-1.21,9v2.39a31.36,31.36,0,0,0-10.86,4.4L55,215.34a41.82,41.82,0,0,0-7.22-5.53l-.41.41-7.21,7.07-.42.4c.28.47.58.93.89,1.39,5.62,1.11,11.42,2.51,17.35,4.21A26.37,26.37,0,0,1,61,221.25Z"/><polygon class="cls-1" points="125.38 153.59 125.56 165.6 133.62 179.27 140.44 165.59 140.44 151.9 125.38 153.59"/><path class="cls-2" d="M125.38,160.81c6.55,6.54,9.6,6.17,15,.06l.33-5.26-15.35,1.49Z"/><path class="cls-1" d="M120.24,142.48a118.12,118.12,0,0,0,2.58,11.77c1.65,5.85,7.22,8.73,10,8.73,3.35,0,8.13-3.87,9.82-8.86a97.32,97.32,0,0,0,2.77-11.66Z"/><path class="cls-1" d="M143.33,146.71c2.71-2.1,3.21-.4,2.55,1.89s-2.08,5.76-3,4.67S143.33,146.71,143.33,146.71Z"/><path class="cls-1" d="M121.62,146.47c-2.44-2.17-2.88-.41-2.29,2s1.86,6,2.67,4.83S121.62,146.47,121.62,146.47Z"/><path class="cls-7" d="M121.08,143.12a39.43,39.43,0,0,1,7.06-.7,54.46,54.46,0,0,1,10.21.82,15.61,15.61,0,0,0,3.43.41,12,12,0,0,0,1.23,0h0l.82-.16-.06,7.42s2.7-6.85,2.7-9.88a11.76,11.76,0,0,0-9.62-11.16c-7.58-1.6-14.18.95-16.15,4.46,0,0-3.63,1.79-1.78,11a14.8,14.8,0,0,1,3.35,5.56Q121.69,147,121.08,143.12Z"/><path class="cls-7" d="M141.16,162.61l13.67,7.12a12,12,0,0,1,6.25,8.52l3.67,20.59H133.23s-1.83-16.3-1.83-22.85c0-1,4.84-4.36,4.84-4.36L140,167Z"/><path class="cls-7" d="M124.18,163.18l-12.51,6.55a12,12,0,0,0-6.25,8.52l-3.65,20.59h31.51V175.28c0-1-3-3.62-3-3.62l-4.2-4.52Z"/><path class="cls-5" d="M134.91,175c.64-1.35,1.13-2.53,1.13-2.53l-3-3.09-3,3.09s.49,1.18,1.13,2.53a187.18,187.18,0,0,0-3,24.72c1.55.14,3.2.22,4.91.22s3.24-.07,4.74-.21A185.57,185.57,0,0,0,134.91,175Z"/><path class="cls-12" d="M131.18,174.8a8.06,8.06,0,0,1,1.85-.17,8.77,8.77,0,0,1,1.85.18l0,0c.58-1.13,1-2.14,1.09-2.27a10.34,10.34,0,0,0-2.75-.37,10.13,10.13,0,0,0-3.06.37,11.88,11.88,0,0,0,1,2.27Z"/><path class="cls-6" d="M133,169.38l-3.66,5-5.19-11,1.28-2.54Z"/><path class="cls-6" d="M132.91,169.38c1.22,1.65,2.43,3.31,3.65,5l5.2-11-1.29-2.54Z"/><path class="cls-9" d="M133.12,119.68a38.7,38.7,0,1,0,38.7,38.7A38.7,38.7,0,0,0,133.12,119.68Zm0,76.22a37.52,37.52,0,1,1,37.52-37.52A37.52,37.52,0,0,1,133.12,195.9Z"/><path class="cls-13" d="M184.61,148.39h-3.75A46.8,46.8,0,0,0,174.14,132l2.69-2.71a66.64,66.64,0,0,0,8.29-10.81l-.61-.62-10.8-10.8-.61-.62a54.73,54.73,0,0,0-10.67,8.44l-2.79,2.65a47.17,47.17,0,0,0-16.42-6.78v-3.7a57,57,0,0,0-1.39-13.69h-17A59.67,59.67,0,0,0,123,107.09v3.65a46.2,46.2,0,0,0-16.23,6.72l-2.58-2.61a61.48,61.48,0,0,0-10.78-8.44l-.61.62L82,117.82l-.61.62a62.11,62.11,0,0,0,8.43,10.8l2.59,2.63a44.11,44.11,0,0,0-6.83,16.52H82.05a60,60,0,0,0-14,1.48v17c4.7,1.2,10.27,1.25,14,1.72h3.59a50.82,50.82,0,0,0,6.79,16.3l-2.52,2.52a57.65,57.65,0,0,0-8.57,10.81l.62.62,10.79,10.8.62.61a71.19,71.19,0,0,0,10.94-8.43l2.47-2.55A46.2,46.2,0,0,0,123,206v3.65a54.78,54.78,0,0,0,1.81,13.46h17c1.21-4.23,1.39-9.71,1.39-13.46V206a47.56,47.56,0,0,0,16.42-6.78l2.65,2.58a63.4,63.4,0,0,0,10.84,8.44l.63-.62,10.81-10.8.62-.61a61.74,61.74,0,0,0-8.43-10.8l-2.62-2.64a50.21,50.21,0,0,0,6.68-16.13h3.79c3.75-.47,9.37-.52,13.13-1.72v-17C194,148.66,188.36,148.39,184.61,148.39Zm-12.85,20.26a39.63,39.63,0,0,1-4,9.7,40.12,40.12,0,0,1-14.36,14.43,39.61,39.61,0,0,1-9.87,4.12,40.07,40.07,0,0,1-20.36,0,39.47,39.47,0,0,1-9.9-4.07,40,40,0,0,1-14.42-14.36,39.27,39.27,0,0,1-4.13-9.87,40.07,40.07,0,0,1,0-20.36,39.37,39.37,0,0,1,4.18-10.07,39.87,39.87,0,0,1,68.91.18,39.25,39.25,0,0,1,4.07,9.89,40.07,40.07,0,0,1-.05,20.36Z"/><path class="cls-14" d="M113.25,123.86a39.89,39.89,0,0,1,54.49,14.54,39.25,39.25,0,0,1,4.07,9.89,38.49,38.49,0,0,1,1,5.05,229.19,229.19,0,0,1,22.57,14.13,14.32,14.32,0,0,0,2.39-.59v-17c-3.76-1.21-9.38-1.48-13.13-1.48h-3.75A46.8,46.8,0,0,0,174.14,132l2.69-2.71a66.64,66.64,0,0,0,8.29-10.81l-.61-.62-10.8-10.8-.61-.62a54.73,54.73,0,0,0-10.67,8.44l-2.79,2.65a47.17,47.17,0,0,0-16.42-6.78v-3.7a57,57,0,0,0-1.39-13.69h-17A59.67,59.67,0,0,0,123,107.09v3.65a46.2,46.2,0,0,0-16.23,6.72l-2.58-2.61a61.48,61.48,0,0,0-10.78-8.44l-.61.62L82,117.82l-.61.62c.4.71.85,1.42,1.33,2.12,8.39,1.69,17.07,3.83,25.92,6.43A39.92,39.92,0,0,1,113.25,123.86Z"/><path class="cls-7" d="M250.87,173.67a13,13,0,0,1,4.79-2.91c4.2-1.41,9-.41,13.49.48a18.3,18.3,0,0,0,4.52.36c.74,0,1.32-.11,1.62-.15h0l-3,5a5.1,5.1,0,0,0,.64,3c.34.57.63.75.93,1.3a4.54,4.54,0,0,1,.38,3,29,29,0,0,0,5.39-16.39,21,21,0,0,0-2.77-11.73,19.51,19.51,0,0,0-6.14-6.18,18.94,18.94,0,0,0-7-2.47c-1.45-.21-8.73-1.28-14.44,3.8a16.73,16.73,0,0,0-5.37,12.2h0a25.56,25.56,0,0,0-.16,12.48,14.61,14.61,0,0,0,2,4.73,12,12,0,0,0,2.86,3,7.78,7.78,0,0,1,0-2.57,8.06,8.06,0,0,1,.6-1.92A30,30,0,0,0,250.87,173.67Z"/><polygon class="cls-15" points="252.84 177.02 253.05 191.32 262.82 207.6 271.08 191.31 271.08 175 252.84 177.02"/><path class="cls-2" d="M252.84,185.61c7.93,7.79,11.63,7.35,18.2.07l.4-6.26-18.6,1.77Z"/><path class="cls-15" d="M246.61,163.78a135,135,0,0,0,3.12,14c2,7,8.75,10.39,12.08,10.39,4.06,0,9.85-4.6,11.9-10.55a111.94,111.94,0,0,0,3.36-13.89Z"/><path class="cls-15" d="M274.59,168.81c3.29-2.5,3.89-.47,3.09,2.26s-2.52,6.85-3.6,5.56S274.59,168.81,274.59,168.81Z"/><path class="cls-15" d="M248.28,168.54c-3-2.59-3.49-.5-2.78,2.33s2.26,7.09,3.24,5.75S248.28,168.54,248.28,168.54Z"/><path class="cls-16" d="M272,187.75l16.58,8.48a14.33,14.33,0,0,1,7.57,10.15l4.44,24.52h-38.2c-2.77-18.09-4.61-34.82-1.88-35.49,1.38-.34,5.53,3.08,5.53,3.08l4.52-5.56Z"/><path class="cls-16" d="M251.38,188.44l-15.16,7.79a14.33,14.33,0,0,0-7.57,10.15l-4.43,24.52h38.19V202.84c0-1.17-3.65-4.31-3.65-4.31l-5.09-5.38Z"/><path class="cls-6" d="M262.1,195.81l-4.42,5.93a17.52,17.52,0,0,1-4.76-6.23,17.13,17.13,0,0,1-1.54-6.88l1.56-3Z"/><path class="cls-6" d="M262.14,195.81c1.47,2,2.95,3.95,4.43,5.93a17.63,17.63,0,0,0,4.75-6.23,17.13,17.13,0,0,0,1.54-6.88l-1.56-3Z"/><path class="cls-7" d="M246.63,166.86a69.64,69.64,0,0,1,7.43-1.35c1.51-.2,2.27-.3,3.16-.34a40.18,40.18,0,0,1,11.5,1.51,22.89,22.89,0,0,0,3.84.62c.63,0,1.14.06,1.4.06h0l.94-.07h0a5,5,0,0,0,3.12-1.85c1.64-2.88-3.84-8.67-10.18-10.13-8.47-1.94-16.09-.33-18.52,2.46a7.85,7.85,0,0,0-1.92,1.59C244.79,162.37,246.27,166,246.63,166.86Z"/><path class="cls-17" d="M262.82,136.11c-26,0-47,20.82-47,46.51s21.06,46.52,47,46.52,47-20.82,47-46.52S288.8,136.11,262.82,136.11Zm0,91.62c-25.19,0-45.61-20.19-45.61-45.11s20.42-45.1,45.61-45.1,45.61,20.19,45.61,45.1S288,227.73,262.82,227.73Z"/><path class="cls-18" d="M325.41,170.62h-4.56A56,56,0,0,0,312.69,151l3.26-3.25c3.06-3.36,7.42-8.32,10.09-13l-.75-.75-13.13-13-.75-.75a66.68,66.68,0,0,0-13,10.15l-3.4,3.18a57.86,57.86,0,0,0-19.95-8.15V121a68.34,68.34,0,0,0-1.69-16.46H252.73a70.91,70.91,0,0,0-2.2,16.46v4.39a56.62,56.62,0,0,0-19.73,8.07l-3.14-3.14a75.68,75.68,0,0,0-13.1-10.14l-.74.74-13.12,13-.75.74a74.77,74.77,0,0,0,10.26,13l3.14,3.17a52.6,52.6,0,0,0-8.3,19.86h-4.32a74.49,74.49,0,0,0-17,1.77v20.45c5.71,1.45,12.48,1.51,17,2.07h4.37a60.84,60.84,0,0,0,8.25,19.6l-3.06,3a69.33,69.33,0,0,0-10.42,13l.75.74,13.12,13,.75.75a85.53,85.53,0,0,0,13.3-10.15l3-3.05a56.62,56.62,0,0,0,19.73,8.07v4.39a65.06,65.06,0,0,0,2.2,16.18h20.68c1.46-5.08,1.69-11.67,1.69-16.18v-4.44a57.88,57.88,0,0,0,19.95-8.16l3.23,3.11a75.86,75.86,0,0,0,13.17,10.14l.78-.74,13.13-13,.76-.74a75.25,75.25,0,0,0-10.26-13l-3.17-3.17a60.13,60.13,0,0,0,8.11-19.4h4.61c4.56-.56,11.39-.62,16-2.07V172.39C336.8,171,330,170.62,325.41,170.62ZM309.79,195a47.33,47.33,0,0,1-4.89,11.67,48.52,48.52,0,0,1-29.46,22.3,48.65,48.65,0,0,1-54.31-22.09,47.44,47.44,0,0,1,0-48.46,48.53,48.53,0,0,1,29.57-22.16A49.42,49.42,0,0,1,263,134.69a48.93,48.93,0,0,1,12.49,1.61,48.16,48.16,0,0,1,34.42,34.2,47.73,47.73,0,0,1-.07,24.47Z"/><path class="cls-19" d="M238.67,141.13a48.26,48.26,0,0,1,12-4.9A49.42,49.42,0,0,1,263,134.69a48.93,48.93,0,0,1,12.49,1.61,48.16,48.16,0,0,1,34.42,34.2,47.15,47.15,0,0,1,1.17,6.07,280.51,280.51,0,0,1,27.43,17,16.28,16.28,0,0,0,2.91-.71V172.39c-4.57-1.44-11.4-1.77-16-1.77h-4.56A56,56,0,0,0,312.69,151l3.26-3.25c3.06-3.36,7.42-8.32,10.09-13l-.75-.75-13.13-13-.75-.75a66.68,66.68,0,0,0-13,10.15l-3.4,3.18a57.86,57.86,0,0,0-19.95-8.15V121a68.34,68.34,0,0,0-1.69-16.46H252.73a70.91,70.91,0,0,0-2.2,16.46v4.39a56.62,56.62,0,0,0-19.73,8.07l-3.14-3.14a75.68,75.68,0,0,0-13.1-10.14l-.74.74-13.12,13-.75.74c.5.85,1,1.71,1.62,2.55,10.2,2,20.75,4.61,31.51,7.73A47.08,47.08,0,0,1,238.67,141.13Z"/><path class="cls-7" d="M249.87,84.11c-56.36,7.25-96.36,57.24-89.36,111.66s58.36,92.66,114.71,85.41,96.37-57.25,89.37-111.67v0C357.56,115.06,306.2,76.85,249.87,84.11ZM274,270.9c-50.49,6.53-96.52-27.7-102.83-76.46s29.52-93.56,80-100.08,96.53,27.7,102.83,76.46h0c6.3,48.74-29.51,93.55-80,100.07Z"/><path class="cls-7" d="M456.16,329.9l1-1.29a8.77,8.77,0,0,0-1.62-12.6h0L344.3,233.24l-12.46,15.55,111.27,82.79a9.53,9.53,0,0,0,13-1.68Z"/><rect class="cls-20" x="142.51" y="297.47" width="7.42" height="7.42" transform="translate(-188.57 298.49) rotate(-63.64)"/><rect class="cls-20" x="184.63" y="296.07" width="10.23" height="10.23" transform="translate(-164.37 337.49) rotate(-63.64)"/><rect class="cls-20" x="54.09" y="100.82" width="7.96" height="7.96" transform="translate(-35.82 30.38) rotate(-22.61)"/><rect class="cls-20" x="64.09" y="79.93" width="4.43" height="4.43" transform="translate(-38.02 98.29) rotate(-59.89)"/><rect class="cls-20" x="380.33" y="104.01" width="7.96" height="7.96" transform="translate(-6.1 24.71) rotate(-3.65)"/><rect class="cls-20" x="400.85" y="120.92" width="4.43" height="4.43" transform="translate(17.88 294.19) rotate(-40.93)"/><rect class="cls-20" x="405.97" y="137.1" width="4.43" height="4.43" transform="translate(53.84 385.2) rotate(-53.6)"/><rect class="cls-20" x="155.59" y="285.89" width="5.13" height="5.13" transform="translate(-88.44 70.71) rotate(-19.82)"/></svg>