<svg id="Layer_1" data-name="Layer 1" xmlns="http://www.w3.org/2000/svg" viewBox="0 0 481.89 393.28"><defs><style>.cls-1{fill:#020202;opacity:0.21;isolation:isolate;}.cls-2{fill:#fff;}.cls-3{fill:#e6e6e5;}.cls-4{fill:#184275;}.cls-5{fill:#939598;}.cls-6{fill:#febc18;}.cls-7{fill:#a41d27;}</style></defs><title>CL, EJO, AC 2</title><polygon class="cls-1" points="211.76 93.87 282.9 291.94 120 342.39 211.76 93.87"/><polygon class="cls-2" points="273.72 287.8 120 342.39 54.27 146.79 211.76 93.87 273.72 287.8"/><rect class="cls-3" x="76.18" y="144.87" width="59.69" height="48.42" transform="translate(-48.34 42.58) rotate(-18.57)"/><rect class="cls-3" x="89.47" y="194.22" width="141.92" height="15.37" transform="translate(-55.96 61.62) rotate(-18.57)"/><rect class="cls-3" x="104.46" y="216.31" width="141.92" height="60.41" transform="translate(-69.39 68.72) rotate(-18.57)"/><rect class="cls-3" x="122.04" y="295.44" width="111.06" height="11.81" transform="translate(-86.74 72.26) rotate(-18.57)"/><polygon class="cls-1" points="272.81 82.02 304.98 290 135.45 308.55 272.81 82.02"/><polygon class="cls-2" points="296.75 284.19 135.45 308.55 108.12 104.02 272.81 82.02 296.75 284.19"/><rect class="cls-3" x="124.85" y="111.54" width="59.69" height="48.42" transform="translate(-16.61 21.68) rotate(-7.61)"/><rect class="cls-3" x="130.91" y="170.64" width="141.92" height="15.37" transform="matrix(0.99, -0.13, 0.13, 0.99, -21.84, 28.3)"/><rect class="cls-3" x="137.14" y="194.77" width="141.92" height="60.41" transform="translate(-27.96 29.54) rotate(-7.61)"/><rect class="cls-3" x="144.25" y="273.3" width="111.06" height="11.81" transform="translate(-35.22 28.92) rotate(-7.61)"/><path class="cls-4" d="M182.89,78.45H348.41a6.06,6.06,0,0,1,6.25,5.86V296.86a6.06,6.06,0,0,1-6.25,5.86H182.89a6.06,6.06,0,0,1-6.25-5.86V84.31A6.06,6.06,0,0,1,182.89,78.45Z"/><path class="cls-5" d="M310.49,143.46a1.61,1.61,0,0,1-.72-3l15-8.1a1.6,1.6,0,0,1,1.55,2.81l-15,8.1A1.55,1.55,0,0,1,310.49,143.46Z"/><path class="cls-5" d="M327.63,240.29a1.56,1.56,0,0,1-.59-.15l-16-6.82a1.61,1.61,0,1,1,1.37-2.91l16,6.82a1.61,1.61,0,0,1-.77,3.06Z"/><path class="cls-5" d="M337.11,168.74h0L318,172.56a1.61,1.61,0,0,1-.72-3.13h.05l19.1-3.81a1.62,1.62,0,0,1,1.91,1.24A1.6,1.6,0,0,1,337.11,168.74Z"/><path class="cls-5" d="M336.56,208.05h0l-19.25-3a1.61,1.61,0,0,1,.4-3.19h.05l19.25,3a1.61,1.61,0,0,1-.41,3.19Z"/><path class="cls-6" d="M378.31,148.07a1.58,1.58,0,0,1-1.35-.83,1.6,1.6,0,0,1,.63-2.18l15-8.1a1.61,1.61,0,1,1,1.56,2.81l-15,8.1A1.55,1.55,0,0,1,378.31,148.07Z"/><path class="cls-6" d="M395.45,244.9a1.56,1.56,0,0,1-.59-.15l-16-6.82a1.61,1.61,0,0,1,1.36-2.91l16,6.82a1.61,1.61,0,0,1-.77,3.06Z"/><path class="cls-6" d="M404.93,173.35h0l-19.11,3.82a1.61,1.61,0,0,1-.71-3.14h0l19.11-3.81a1.6,1.6,0,0,1,.71,3.13Z"/><path class="cls-6" d="M404.38,212.66h0l-19.26-3a1.6,1.6,0,0,1,.41-3.18h0l19.26,3a1.61,1.61,0,0,1-.41,3.19Z"/><path class="cls-6" d="M155.12,141.37a1.61,1.61,0,0,0,.73-3l-15-8.1a1.6,1.6,0,1,0-1.55,2.81l14.95,8.1A1.57,1.57,0,0,0,155.12,141.37Z"/><path class="cls-6" d="M138,238.2a1.56,1.56,0,0,0,.59-.15l16-6.82a1.61,1.61,0,0,0-1.36-2.91l-16,6.82a1.61,1.61,0,0,0,.78,3.06Z"/><path class="cls-6" d="M128.5,166.65h0l19.11,3.81a1.6,1.6,0,0,0,.71-3.13h0l-19.11-3.81a1.6,1.6,0,0,0-.71,3.13Z"/><path class="cls-6" d="M129.05,206h0l19.26-3a1.6,1.6,0,0,0-.41-3.18h0l-19.26,3a1.61,1.61,0,0,0,.41,3.19Z"/><polygon class="cls-1" points="349.32 86.71 353.66 297.12 183.16 293.05 349.32 86.71"/><polygon class="cls-2" points="346.27 290.27 183.16 293.05 183.16 86.71 349.32 86.71 346.27 290.27"/><rect class="cls-3" x="195.28" y="100.11" width="59.69" height="48.42"/><rect class="cls-3" x="195.28" y="165.09" width="141.92" height="15.37"/><rect class="cls-3" x="195.28" y="189.63" width="141.92" height="60.41"/><rect class="cls-3" x="195.28" y="266.59" width="111.06" height="11.81"/><rect class="cls-6" x="50.81" y="112.34" width="10.25" height="10.25" transform="translate(-53.35 46.87) rotate(-31.68)"/><rect class="cls-6" x="56.7" y="86.16" width="16.71" height="16.71" transform="translate(-39.94 48.24) rotate(-31.68)"/><rect class="cls-6" x="351.46" y="331.07" width="10.25" height="10.25" transform="translate(-41.93 50.95) rotate(-7.72)"/><rect class="cls-6" x="81.63" y="327.06" width="13.48" height="13.48" transform="translate(-44.04 14.9) rotate(-7.72)"/><rect class="cls-6" x="385.94" y="302.41" width="10.25" height="10.25" transform="translate(-1.21 613.54) rotate(-76.14)"/><polygon class="cls-6" points="79.83 315.66 83.25 308.77 90.31 311.83 86.89 318.73 79.83 315.66"/><rect class="cls-6" x="388.47" y="320.89" width="4.43" height="4.43" transform="translate(-96.23 181.88) rotate(-23.42)"/><path class="cls-7" d="M264.83,263.3a72.05,72.05,0,1,1,72.05-72.05A72.13,72.13,0,0,1,264.83,263.3Zm0-142.79a70.74,70.74,0,1,0,70.74,70.74A70.82,70.82,0,0,0,264.83,120.51Zm0,129.92A59.18,59.18,0,1,1,324,191.25,59.25,59.25,0,0,1,264.83,250.43Zm0-117.06a57.88,57.88,0,1,0,57.87,57.88A58,58,0,0,0,264.83,133.37Z"/><path class="cls-7" d="M264.83,236.32a45.07,45.07,0,1,1,45.07-45.07A45.12,45.12,0,0,1,264.83,236.32Zm0-88.83a43.76,43.76,0,1,0,43.76,43.76A43.81,43.81,0,0,0,264.83,147.49Zm0,76.79a33,33,0,1,1,33-33A33.07,33.07,0,0,1,264.83,224.28Zm0-64.76a31.73,31.73,0,1,0,31.72,31.73A31.77,31.77,0,0,0,264.83,159.52Z"/><path class="cls-7" d="M264.83,210.58a19.33,19.33,0,1,1,19.33-19.33A19.35,19.35,0,0,1,264.83,210.58Zm0-37.36a18,18,0,1,0,18,18A18.05,18.05,0,0,0,264.83,173.22Z"/><polygon class="cls-7" points="331.34 101.82 333.4 119.22 333.24 119.68 347.66 105.21 345.61 88.91 331.34 101.82"/><path class="cls-7" d="M331.68,122.17l1.05-3-2.08-17.59,15.45-14,2.25,17.87Zm.34-20.09,1.9,16L347,105l-1.86-14.75Z"/><polygon class="cls-7" points="353.18 99.68 351.84 83.27 346.54 88.06 348.48 104.4 353.18 99.68"/><path class="cls-7" d="M348,105.81l-2.14-18,6.53-5.91,1.48,18Zm-.76-17.49L349,103l3.54-3.55L351.3,84.64Z"/><polygon class="cls-7" points="323.31 109.08 324.87 128.07 332.62 120.3 330.4 102.67 323.31 109.08"/><path class="cls-7" d="M324.34,129.54l-1.7-20.73,8.25-7.47,2.42,19.2ZM324,109.35l1.42,17.26,6.52-6.54-2-16.08Z"/><polygon class="cls-7" points="327.71 131.29 346.05 132.07 362.93 115.3 344.98 114.44 327.71 131.29"/><path class="cls-7" d="M346.3,132.74l-20.13-.86,18.56-18.1,19.71.94Zm-17.05-2,16.54.71,15.63-15.53-16.19-.77Z"/><polygon class="cls-7" points="372.98 105.33 355.73 103.96 346 113.45 363.9 114.34 372.98 105.33"/><path class="cls-7" d="M364.16,115l-19.69-1,11-10.74,19,1.51Zm-16.64-2.14,16.12.81,7.87-7.82L356,104.63Z"/><path class="cls-7" d="M361.53,99.07l-1.46-1.47-2.67-2.67L262,189a2.74,2.74,0,0,0,.75,3.66s1.83,1.59,3,.85l95.75-94.48Z"/><path class="cls-7" d="M265.06,194.4a4.9,4.9,0,0,1-2.71-1.2,3.37,3.37,0,0,1-.88-4.51l.1-.11L357.4,94l5.06,5.06-96.33,95A1.91,1.91,0,0,1,265.06,194.4Zm-2.51-5a2.07,2.07,0,0,0,.63,2.75c.49.42,1.62,1.13,2.2.84l95.22-94-3.21-3.21Z"/><rect class="cls-6" x="85.55" y="92.17" width="5.13" height="5.13" transform="translate(-23.04 160.95) rotate(-77.85)"/><rect class="cls-6" x="108.61" y="72.84" width="5.13" height="5.13" transform="translate(-12.67 23.36) rotate(-11.35)"/></svg>