<svg id="Layer_1" data-name="Layer 1" xmlns="http://www.w3.org/2000/svg" viewBox="0 0 481.89 393.28"><defs><style>.cls-1{fill:#585789;}.cls-2{fill:#bbbebf;}.cls-22,.cls-3{fill:#020202;}.cls-3{opacity:0.21;}.cls-3,.cls-9{isolation:isolate;}.cls-4{fill:#fff;}.cls-5{fill:#e6e6e5;}.cls-6{fill:#febc18;}.cls-7{fill:#efaf75;}.cls-8{fill:#f9a463;}.cls-9{fill:#de9a66;opacity:0.85;}.cls-10{fill:#e49353;}.cls-11{fill:#3f4851;}.cls-12{fill:#293147;}.cls-13{fill:#535f6b;}.cls-14{fill:#1d2227;}.cls-15{fill:#36435f;}.cls-16{fill:#e4a06b;}.cls-17{fill:#f3e0c9;}.cls-18{fill:#f9eddf;}.cls-19{fill:#424e5b;}.cls-20{fill:#184275;}.cls-21{fill:#062946;}.cls-23{fill:#1b2434;}.cls-24{fill:#253247;}.cls-25{fill:#dc9a64;}.cls-26{fill:#a41d27;}</style></defs><title>CL, EJO, AC 2</title><polygon class="cls-1" points="147.44 173.26 328.25 172.87 238.03 249.99 147.44 173.26"/><polygon class="cls-2" points="328.25 172.87 237.65 104.99 147.44 173.26 328.25 172.87"/><polygon class="cls-3" points="308.89 46.34 312.56 241.73 168.39 237.95 308.89 46.34"/><polygon class="cls-4" points="306.31 235.38 168.39 237.95 168.39 46.34 308.89 46.34 306.31 235.38"/><rect class="cls-5" x="232.94" y="58.78" width="65.7" height="35.75"/><rect class="cls-5" x="178.64" y="160.92" width="120.01" height="17.1"/><rect class="cls-5" x="178.5" y="133.89" width="120.01" height="17.1"/><rect class="cls-5" x="178.64" y="106.86" width="120.01" height="17.1"/><rect class="cls-5" x="178.64" y="187.15" width="120.01" height="17.1"/><rect class="cls-5" x="178.64" y="213.38" width="120.01" height="17.1"/><rect class="cls-6" x="197" y="63.29" width="16.32" height="16.32" transform="translate(9.57 165.99) rotate(-45)"/><rect class="cls-6" x="186.49" y="76.41" width="11.22" height="11.22" transform="translate(-1.73 159.86) rotate(-45)"/><rect class="cls-6" x="198.43" y="85.8" width="8.32" height="8.32" transform="translate(-4.28 169.6) rotate(-45)"/><polygon class="cls-6" points="328.25 172.87 328.53 286.6 147.71 287.01 147.44 173.26 237.94 230 328.25 172.87"/><ellipse class="cls-5" cx="239.64" cy="318.01" rx="29.59" ry="6.46"/><path class="cls-7" d="M236.84,308.59l-5,.24c-1.08-5.93-2.06-10.71-2.74-13.93-2.32-11-3-12.46-2.73-16.49s1.12-5.7,1-10.54a39.57,39.57,0,0,0-1.27-8.6l2.08-3.63,10.41-6.81a66.76,66.76,0,0,0-.48,10.09c.1,2.91.34,4.09.22,7-.15,3.92-.7,4.3-.92,7.6-.36,5.49,1,5.82.79,11.26-.19,3.82-.87,3.33-1.27,8.58-.23,3.09-.23,5.76-.21,8.69C236.68,304.72,236.76,307,236.84,308.59Z"/><path class="cls-7" d="M242.42,308.59l5,.24c1.09-5.93,2.06-10.71,2.74-13.93,2.32-11,3-12.46,2.74-16.49s-1.12-5.7-1-10.54a38.36,38.36,0,0,1,1.27-8.6l-2.08-3.63-10.42-6.81a64.2,64.2,0,0,1,.48,10.09c-.09,2.91-.33,4.09-.22,7,.16,3.92.7,4.3.92,7.6.36,5.49-1.05,5.82-.78,11.26.18,3.82.86,3.33,1.26,8.58.24,3.09.24,5.76.22,8.69C242.58,304.72,242.5,307,242.42,308.59Z"/><path class="cls-8" d="M247.86,162.62a6.34,6.34,0,0,0-2.74,2.92,8.14,8.14,0,0,0-.08,1.71H234.63a3,3,0,0,0-.66-2l7.75-17.66,1-.9s2,2.22,2.37,2.64a5.32,5.32,0,0,1,.68,2.61l2,2.13-.35,1.36s.71,1.35.93,1.79a15.06,15.06,0,0,1,.31,2,6.71,6.71,0,0,1,.42,1.24C249.18,161.08,249.33,161.7,247.86,162.62Z"/><path class="cls-9" d="M246.15,152.29l-.3.77a1.64,1.64,0,0,1-.38-.82,12.9,12.9,0,0,1,.11-1.86,6.08,6.08,0,0,1,.22,1.53Z"/><path class="cls-10" d="M243.77,160.07a2.76,2.76,0,0,0-.84-1.56,2.12,2.12,0,0,1-.77-1.6c0-1.92-3-1.22-1.5,1.86a3.1,3.1,0,0,0,1.79,1.69,2,2,0,0,1,.75.47,6,6,0,0,1,1.92,4.6,6.32,6.32,0,0,1,2.73-2.91c1-.61,1.24-1.08,1.28-1.52A11.34,11.34,0,0,1,243.77,160.07Z"/><polygon class="cls-11" points="254.91 226.25 239.79 226.77 254.91 226.24 254.91 226.25"/><path class="cls-12" d="M223.34,243.11v26.53a.83.83,0,0,1-.14.46l-2.73,4.11-3,.39V244.49h2.33l2.76-2.16h0A.81.81,0,0,1,223.34,243.11Z"/><path class="cls-13" d="M217,242.32h5.59l-2.76,2.15H214l2.52-2A.88.88,0,0,1,217,242.32Z"/><path class="cls-14" d="M220.71,243.06h-2.57v-7a.69.69,0,0,1,.69-.69H220a.69.69,0,0,1,.7.69v7Z"/><path class="cls-15" d="M219.79,244.47h-5.62l2.8-2.15h-.29a.82.82,0,0,0-.5.17l-2.79,2.18h0a.78.78,0,0,0-.27.59v28.53a.79.79,0,0,0,.78.79h5.85a.79.79,0,0,0,.79-.79h0V245.26A.79.79,0,0,0,219.79,244.47Z"/><path class="cls-16" d="M219.81,239.7c-.32.42-2.8,1-3.12,1.06s-1.21-1.1-1.33-1.25c.28-1.46.27-2.71,1.19-3.19,0,0,.8-.16.93-.16a1.49,1.49,0,0,1,0,1,1,1,0,0,1,.68.22s.46-.61.84-.66a.65.65,0,0,1,0-.34,4.66,4.66,0,0,1,.93,1C220.2,237.61,220.12,239.31,219.81,239.7Z"/><path class="cls-9" d="M217.08,237.88a1.22,1.22,0,0,1,.84.26l.13.14a3.7,3.7,0,0,1,.46-.57,1.46,1.46,0,0,1,.7-.47l.2,0-.07-.18a.65.65,0,0,1,0-.24.51.51,0,0,0-.13-.09,1.08,1.08,0,0,0,0,.4c-.53.08-1.18.93-1.18.93a1.43,1.43,0,0,0-1-.3,2.24,2.24,0,0,0,.06-1.4l-.15,0a2.19,2.19,0,0,1-.14,1.53Z"/><path class="cls-9" d="M217.53,239.26l.19-.25c.2-.28.81-.34,1.06-.33h.12a2.47,2.47,0,0,1,.18-.52,1,1,0,0,1,.73-.64l-.06-.15c-.34,0-.76.38-1,1.15,0,0-.88,0-1.19.39a1.26,1.26,0,0,0-1.1-.93h0a2.23,2.23,0,0,0,.13-1.44l-.14.09a2.49,2.49,0,0,1,0,.77,1.32,1.32,0,0,1-.13.47s0,0-.11.2l.25.06a.91.91,0,0,1,.77.41,1.65,1.65,0,0,1,.21.42Z"/><path class="cls-8" d="M219.85,239.66a4.78,4.78,0,0,0,0-2.07c-.42-1.19-1.4-1.25-2.33-1.28s-1.24.47-1.45,1.52c.09,0,.6.91,1.3,1.66.84.19,2.18.56,2,1.4,0,.3-.5.36-1.8.36s-2.15-.71-4.52-4.13a1.17,1.17,0,0,1-.05-1.26l.85-1.78a15.74,15.74,0,0,0,.87-4.41h5.05a34.38,34.38,0,0,0,1.19,4.76,9.42,9.42,0,0,1,.35,2.36A3.47,3.47,0,0,1,219.85,239.66Z"/><path class="cls-16" d="M213.09,237.13a21.67,21.67,0,0,0,2.61,3.35,2.53,2.53,0,0,0,1.94.79c.89,0,1.57,0,1.75-.27-.35,0-.93,0-1.31,0a2.48,2.48,0,0,1-1.86-.89l-1.4-1.78c-1.64-2.64-1.67-2,.09-4.65a6.81,6.81,0,0,1,4.93-3.78.67.67,0,0,1,0-.2h-5.07a15.42,15.42,0,0,1-.88,4.41l-.85,1.78A1.18,1.18,0,0,0,213.09,237.13Z"/><rect class="cls-4" x="214.07" y="229.93" width="6.3" height="1.49"/><path class="cls-17" d="M217.5,241.24s1.66,0,1.74-.13-.19-.41-.41-.47S217.49,241,217.5,241.24Z"/><path class="cls-18" d="M217.79,241.24a.53.53,0,0,0-.06-.24c-.14.09-.23.18-.23.24Z"/><path class="cls-12" d="M219.47,244h-2.58v-7a.69.69,0,0,1,.69-.7h1.19a.69.69,0,0,1,.69.7v7Z"/><rect class="cls-12" x="216.25" y="244.47" width="1.23" height="30.11"/><path class="cls-19" d="M223.34,243.11l-2.75,2.15a.79.79,0,0,0-.79-.79l2.76-2.15a.71.71,0,0,1,.55.23A.79.79,0,0,1,223.34,243.11Z"/><path class="cls-20" d="M224.51,198.35c-1.59,9.35-1.79,7-3.64,32.07l-7.08,0c.1-11.9.17-19.74.17-19.74v0s.24-6.58.49-9.68c1-12.89,6.93-24.44,6.93-24.44a63.68,63.68,0,0,0,.37,7c.29,2.54.85,4.61,1.5,8.74C223.55,194.15,224.08,196.1,224.51,198.35Z"/><path class="cls-21" d="M224.52,198.35c-.4-1.67-.85-3.73-1.27-6.09-.58-3.34-.87-6-1.33-10.19-.24-2.3-.42-4.2-.54-5.5-.35.74-.69,1.49-1,2.23q.41,4.57,1.12,9.53.58,4.06,1.3,7.82L221,206.9q-.57,11.78-1.15,23.53h1c1.64-22.28,2-22.91,3.15-29.32C224.18,200.3,224.33,199.41,224.52,198.35Z"/><path class="cls-8" d="M259.64,239.66a4.78,4.78,0,0,1,0-2.07c.42-1.19,1.4-1.25,2.33-1.28s1.24.47,1.45,1.52c-.09,0-.6.91-1.3,1.66-.84.19-2.19.56-2.05,1.4.05.3.51.36,1.81.36s2.15-.71,4.52-4.13a1.19,1.19,0,0,0,.05-1.26l-.85-1.78a15.76,15.76,0,0,1-.88-4.41h-5.05a32.66,32.66,0,0,1-1.18,4.76,9,9,0,0,0-.35,2.36A3.47,3.47,0,0,0,259.64,239.66Z"/><path class="cls-16" d="M266.4,237.13a21.67,21.67,0,0,1-2.61,3.35,2.53,2.53,0,0,1-1.94.79c-.89,0-1.58,0-1.75-.27.35,0,.93,0,1.31,0a2.51,2.51,0,0,0,1.86-.89l1.39-1.78c1.65-2.64,1.67-2-.08-4.65a6.81,6.81,0,0,0-4.93-3.78v-.2h5.07a15.39,15.39,0,0,0,.87,4.41l.86,1.78A1.18,1.18,0,0,1,266.4,237.13Z"/><rect class="cls-4" x="259.12" y="229.93" width="6.3" height="1.49"/><path class="cls-20" d="M255,198.35c1.58,9.35,1.78,7,3.64,32.07l7.08,0c.28-8.51.08-15.11-.17-19.74-.08-1.36-.55-9.78-.51-9.78l0,.13,0-.13,0,.13,0-.13c-.11-.55.11-12.71-5.12-21.68-.1-.17-.33-.56-.64-1l-.41-.67s-.13-.23-.5-.77c-.42,4.89-1.09,10.09-2.11,15.55Q255.65,195.4,255,198.35Z"/><path class="cls-21" d="M255,198.35c.4-1.72.84-3.76,1.26-6.09.5-2.69.77-4.72,1.14-7.44.28-2.09.63-4.85,1-8.11l.4.6.44.74c-.27,3.27-.65,6.71-1.16,10.28q-.58,4.06-1.3,7.82l1.72,10.64,1.2,23.64h-1c-1.64-22.28-2-22.91-3.15-29.32C255.31,200.3,255.15,199.41,255,198.35Z"/><path class="cls-4" d="M248.11,171.75c-2.32-1.39-14.21-1.39-16.54,0l2.19-4.73c2.62-1.36,9.52-1.39,12.17,0Z"/><path class="cls-22" d="M255.9,269.06c-7.81.6-13.51.91-14.55.92L240,266.06,238.47,270c-1,0-6.8-.31-14.69-.92a146.89,146.89,0,0,1,0-45.86H255.9a190.28,190.28,0,0,1,1.38,23.49A189.12,189.12,0,0,1,255.9,269.06Z"/><path class="cls-20" d="M253.32,211.27a40.56,40.56,0,0,1,2.91,9.09,41,41,0,0,1,.66,11l-15.42,1.42-1.68-7-1.62,7-15.42-1.42a37.73,37.73,0,0,1,4-19.42c-1.33-6.14-2.54-12.7-3.54-19.65-.79-5.44-1.39-10.68-1.84-15.69L228.5,173h0s3.11-2.41,3.35-2.48l.93-1.81a21.08,21.08,0,0,1,14,0l.93,1.81c.24.07,3.35,2.48,3.35,2.48a31,31,0,0,1,7.27,3.68q-.86,7.6-2,15.55Q255,202.06,253.32,211.27Z"/><path class="cls-21" d="M253.32,211.27a40.42,40.42,0,0,1,3.57,20.06l-3,.28L252,211.29q2.7-12.4,5.41-24.83-.39,2.89-.83,5.84Q255.15,202.07,253.32,211.27Z"/><path class="cls-23" d="M237.53,318h-6.45a4.31,4.31,0,0,1-.16-.63,8.59,8.59,0,0,1,.12-3c0-.17,0-1.4,0-3.86,0-.21,0-.73,0-1.44,0-.19,0-.4,0-.64a20.52,20.52,0,0,1,.32-2.26,2.61,2.61,0,0,1,5.1,0,15,15,0,0,1,.62,3.81,17.81,17.81,0,0,0,.34,3.4h0a14.53,14.53,0,0,1,.32,1.46,5.41,5.41,0,0,1,.11,1.83A3.88,3.88,0,0,1,237.53,318Z"/><path class="cls-24" d="M236.51,311.94a4.29,4.29,0,0,0-1.69,2.09c-.66,1.92.35,4.4-.15,4.58a2.73,2.73,0,0,1-.49,0,2.66,2.66,0,0,1-.52,0c-.5-.19.52-2.76-.2-4.7a4.3,4.3,0,0,0-1.6-2,2.34,2.34,0,0,1-.11-1.83,2.43,2.43,0,0,1,2.49-1.4,2.46,2.46,0,0,1,2.4,1.55A2.24,2.24,0,0,1,236.51,311.94Z"/><path class="cls-23" d="M241.59,318H248a4.31,4.31,0,0,0,.16-.63,8.85,8.85,0,0,0-.11-3c0-.17,0-1.4,0-3.86,0-.21,0-.73,0-1.44,0-.19,0-.4-.05-.64a20.52,20.52,0,0,0-.32-2.26,2.61,2.61,0,0,0-5.09,0,14.67,14.67,0,0,0-.63,3.81,18.37,18.37,0,0,1-.33,3.4h0a12.53,12.53,0,0,0-.33,1.46,5.68,5.68,0,0,0-.11,1.83A3.88,3.88,0,0,0,241.59,318Z"/><path class="cls-24" d="M242.61,311.94A4.29,4.29,0,0,1,244.3,314c.66,1.92-.35,4.4.15,4.58a2.83,2.83,0,0,0,.49,0,2.66,2.66,0,0,0,.52,0c.5-.19-.52-2.76.2-4.7a4.3,4.3,0,0,1,1.6-2,2.34,2.34,0,0,0,.11-1.83,2.43,2.43,0,0,0-2.49-1.4,2.46,2.46,0,0,0-2.4,1.55A2.24,2.24,0,0,0,242.61,311.94Z"/><path class="cls-25" d="M251.92,269.36l-10.49.64c.08.4.15.82.21,1.25s.13,1,.19,1.45l10.26-.56c-.05-.38-.08-.77-.11-1.17C251.94,270.41,251.93,269.87,251.92,269.36Z"/><path class="cls-25" d="M227.33,269.33l10.49.64c-.07.4-.14.82-.2,1.25s-.14,1-.19,1.45l-10.26-.56c0-.38.08-.77.1-1.17C227.31,270.38,227.33,269.84,227.33,269.33Z"/><path class="cls-22" d="M248.55,145a9.26,9.26,0,0,0-17.8-.19c-.53,1.23-6.08,14.65-.19,20.5a8,8,0,0,0,1.89,1.39,13.55,13.55,0,0,1,3.26-2.75,7.16,7.16,0,0,1,4-1.47,7.42,7.42,0,0,1,3.72,1.44,16.56,16.56,0,0,1,3.51,2.78,8.38,8.38,0,0,0,2.18-1.66C254.86,158.87,249,145.85,248.55,145Z"/><path class="cls-24" d="M248.77,144.91a10.76,10.76,0,0,0-1.19-2.29,11.07,11.07,0,0,0-3-3c.38.72,6.58,12.73,3,18.08A5.73,5.73,0,0,1,245,160c-2.49,1-4.16-.85-7.48-.85-3.75,0-7.82,2.41-7.8,4.56,0,.39.14,1.6,2.69,3a13.77,13.77,0,0,1,3.29-2.75,7.28,7.28,0,0,1,4-1.47,7.55,7.55,0,0,1,3.75,1.44,16.62,16.62,0,0,1,3.54,2.78,8.68,8.68,0,0,0,2.2-1.66C255.06,158.86,249.2,145.84,248.77,144.91Z"/><path class="cls-26" d="M121.64,132q.06-14.75.13-29.48h0l41.14,2.21,0-9,21.22,22.13-21.35,21.49.05-9.18Z"/><path class="cls-26" d="M356.9,62.18q-.07,14.73-.14,29.48h0l-41.14-2.22,0,9Q305,87.4,294.36,76.34l21.35-21.49,0,9.17Z"/></svg>