<?xml version="1.0" encoding="utf-8"?>
<!-- Generator: Adobe Illustrator 23.0.4, SVG Export Plug-In . SVG Version: 6.00 Build 0)  -->
<svg version="1.1" id="Layer_1" xmlns="http://www.w3.org/2000/svg" xmlns:xlink="http://www.w3.org/1999/xlink" x="0px" y="0px"
	 viewBox="0 0 512 512" style="enable-background:new 0 0 512 512;" xml:space="preserve">
<style type="text/css">
	.st0{fill:#FFFFFF;}
</style>
<g>
	<path class="st0" d="M151.8,40.1h16v15h-16V40.1z"/>
	<path class="st0" d="M183.8,40.1h16v15h-16V40.1z"/>
	<path class="st0" d="M215.9,40.1h16v15h-16V40.1z"/>
	<path class="st0" d="M152.3,124.8h39.6v39.6h-39.6V124.8z"/>
	<path class="st0" d="M152.3,197.4h39.6V237h-39.6V197.4z"/>
	<path class="st0" d="M152.3,269h39.6v39.6h-39.6V269z"/>
</g>
<path class="st0" d="M331.2,0h-219v344.7H16v47.1h47.1v-32.1h189.8l8.5,8.5l-8.5,8.5H79.6v15h32.6v40.1h191.9v-15H127.2v-25h131.9
	l23.5-23.5l-23.5-23.5H127.2V15h193.4v88.2h95.2V84.6L331.2,0z M48.1,376.7H31v-17h17V376.7z M335.6,88.2V25.7l62.5,62.5H335.6z"/>
<path class="st0" d="M400.8,119.7h15v224.4h-15V119.7z"/>
<path class="st0" d="M215.9,120.2h160.3v15H215.9V120.2z"/>
<path class="st0" d="M215.9,80.2h88.2v15h-88.2V80.2z"/>
<path class="st0" d="M151.8,80.2h48.1v15h-48.1V80.2z"/>
<path class="st0" d="M215.9,152.3h88.2v15h-88.2V152.3z"/>
<path class="st0" d="M215.9,192.4h160.3v15H215.9V192.4z"/>
<path class="st0" d="M215.9,224.4h88.2v15h-88.2V224.4z"/>
<path class="st0" d="M215.9,264.5h160.3v15H215.9V264.5z"/>
<path class="st0" d="M215.9,296.6h88.2v15h-88.2V296.6z"/>
<path class="st0" d="M408.3,479.9c-30.7,0-55.6-24.9-55.6-55.6s24.9-55.6,55.6-55.6s55.6,24.9,55.6,55.6S438.9,479.9,408.3,479.9z
	 M408.3,383.8c-22.4,0-40.6,18.2-40.6,40.6s18.2,40.6,40.6,40.6s40.6-18.2,40.6-40.6S430.6,383.8,408.3,383.8z"/>
<path class="st0" d="M397.6,445.7L386.9,435l13.8-13.8v-20.9h15v27.2L397.6,445.7z"/>
</svg>
