<?xml version="1.0" encoding="utf-8"?>
<!-- Generator: Adobe Illustrator 23.0.4, SVG Export Plug-In . SVG Version: 6.00 Build 0)  -->
<svg version="1.1" id="Layer_1" xmlns="http://www.w3.org/2000/svg" xmlns:xlink="http://www.w3.org/1999/xlink" x="0px" y="0px"
	 viewBox="0 0 512 512" style="enable-background:new 0 0 512 512;" xml:space="preserve">
<style type="text/css">
	.st0{fill:#FFFFFF;}
</style>
<path class="st0" d="M497.2,447.6c0-0.1,0-0.2,0-0.3l-5.3-69c-0.6-7.9-5-15.1-11.8-19.2l-1.2-0.7l-3.1-23.1
	c4.1-3.4,7.4-7.6,9.7-12.4c0.1-0.2,0.2-0.3,0.2-0.5c2.1-4.6,3.3-9.8,3.3-15.2v-27.8c0-15.7-12.8-28.5-28.5-28.5h-16.2
	c-13.3,0-24.6,9.2-27.7,21.6c-0.1,0.2-0.2,0.5-0.3,0.7c-0.5,1.3-0.6,2.7-0.4,3.9c-0.1,0.8-0.1,1.5-0.1,2.3v27.8
	c0,12.9,6.7,24.2,16.8,30.8l-2.1,20.8c-0.4,0.3-0.8,0.7-1.2,1.1l-45.3,54.3l-31.4-0.1c-0.6,0-1.1,0.1-1.7,0.2
	c-5.6,1.3-10.5,3.9-14.5,7.5v-10.3c0-20.4-13-38.5-32.3-45l-13-4.4c-2.1-0.7-4-1.9-5.5-3.5c-2.5-2.6-3.8-6-3.8-9.5v-14l4.4-2.7
	c7.7-4.7,12.5-13.3,12.5-22.3v-23c0,0,0,0,0-0.1v-20c0-16-13-28.9-28.9-28.9h-26.5c-15.9,0-28.9,13-28.9,28.9v17.3v0v25.8
	c0,9.1,4.8,17.6,12.5,22.3l4.4,2.7v14c0,3.8-1.6,7.5-4.4,10.1c-1.4,1.3-3.1,2.3-5,2.9l-12.9,4.4c-19.3,6.5-32.3,24.6-32.3,45v10.8
	c-4.1-3.9-9.3-6.7-15.2-8c-0.6-0.1-1.1-0.2-1.7-0.2l-31.4,0.1l-45.3-54.3c-0.3-0.4-0.7-0.8-1.2-1.1l-2.1-20.8
	c10.1-6.5,16.8-17.9,16.8-30.8v-27.8c0-0.8,0-1.5-0.1-2.3c0.2-1.3,0.1-2.6-0.4-3.9c-0.1-0.2-0.2-0.5-0.3-0.7
	C92.5,260.2,81.3,251,67.9,251H51.7c-15.7,0-28.5,12.8-28.5,28.5v27.8c0,5.4,1.2,10.6,3.3,15.2c0.1,0.2,0.1,0.3,0.2,0.5
	c2.3,4.8,5.6,9,9.7,12.4l-3.1,23.1l-1.2,0.7c-6.8,4.1-11.2,11.3-11.8,19.1l-5.3,69c0,0.1,0,0.2,0,0.3c0,0.1,0,0.2,0,0.3V467
	c0,24.8,20.2,45,45,45h392.2c24.8,0,45-20.2,45-45v-19.1C497.2,447.8,497.2,447.7,497.2,447.6z M444.3,266h16.2
	c7.5,0,13.5,6.1,13.5,13.5v27.7l-7.8-5.5v-7c0-5.9-3.6-11.2-9.1-13.4l-24-9.5C435.5,268.3,439.6,266,444.3,266z M430.7,287.1
	l20.5,8.1v6.9c0,4.7,2.3,9.1,6.1,11.8l11.2,7.8c-4,4.4-9.7,7.2-16.1,7.2c-11.9,0-21.6-9.7-21.6-21.6V287.1z M452.4,343.9
	c3.2,0,6.3-0.4,9.3-1.2l1.2,8.9c-5.5-1.1-11.1-1.1-16.6,0.1l0.8-8.1C448.8,343.8,450.6,343.9,452.4,343.9z M353.4,429.1l34,0.1h0
	c2.2,0,4.3-1,5.8-2.7l47-56.2c8.3-5.7,19.2-6.1,27.9-0.8l4.3,2.6c2.6,1.6,4.3,4.4,4.6,7.5l4.7,60.9h-36.5v-26.2l4.5-4.7
	c2.9-3,2.7-7.7-0.3-10.6c-3-2.9-7.7-2.7-10.6,0.3l-39.4,41.3h-58.1C343.2,435,347.6,430.7,353.4,429.1z M299.2,380.7
	c13.2,4.5,22.1,16.8,22.1,30.8v28.9h-53l10.2-10.3c2-2,2.7-4.9,1.8-7.5l-14.8-47.2c4.4-0.6,8.7-1.7,13-3.1c2.4,1.7,5,3.1,7.8,4
	L299.2,380.7z M246.2,344c3.3,1.4,6.8,2.1,10.2,2.1c3.5,0,7-0.7,10.2-2.1v5.1c0,3.6,0.7,7.2,2,10.5c-4.1,1-8.3,1.5-12.5,1.6
	c-4.1,0.1-8.2-0.3-12.2-1c1.5-3.5,2.2-7.3,2.2-11.1V344z M255.9,395.1l8.7,27.7l-8.8,8.8l-7.8-8.7L255.9,395.1z M243.1,253.1h26.5
	c7.7,0,13.9,6.3,13.9,13.9v9.7l-36.2-11.6c-1.9-0.6-4-0.4-5.8,0.5l-12.4,6.5v-5C229.2,259.4,235.5,253.1,243.1,253.1z M229.2,289
	l16.6-8.6l37.8,12.2v17.6c0,3.9-2,7.5-5.3,9.5l-16.1,9.8c-3.6,2.2-8,2.2-11.5,0l-16.1-9.8c-3.3-2-5.3-5.6-5.3-9.5V289z M213.6,380.7
	l12.9-4.4c2.4-0.8,4.7-1.9,6.8-3.3c4.1,1.2,8.3,2.1,12.5,2.6l-13.3,47.2c-0.7,2.5-0.1,5.1,1.6,7.1l9.5,10.5h-52.1v-28.9
	C191.5,397.5,200.4,385.2,213.6,380.7z M59.8,328.9c-6.4,0-12.2-2.8-16.1-7.2l11.2-7.8c3.8-2.7,6.1-7.1,6.1-11.8v-6.9l20.5-8.1v20.2
	C81.5,319.2,71.8,328.9,59.8,328.9z M51.7,266h16.2c4.6,0,8.7,2.3,11.2,5.9l-24,9.5c-5.5,2.2-9.1,7.4-9.1,13.4v7l-7.8,5.5v-27.7
	C38.2,272.1,44.2,266,51.7,266z M59.8,343.9c1.8,0,3.6-0.1,5.3-0.4l0.8,8.1c-5.5-1.2-11.1-1.2-16.6-0.1l1.2-8.9
	C53.5,343.5,56.6,343.9,59.8,343.9z M35.3,379.5c0.2-3.1,1.9-5.8,4.6-7.4l4.3-2.6c8.7-5.3,19.6-4.9,27.9,0.8l47,56.2
	c1.4,1.7,3.5,2.7,5.8,2.7h0l34-0.1c5.8,1.6,10.2,5.9,12.1,11.3h-58.1l-39.4-41.3c-2.9-3-7.6-3.1-10.6-0.3s-3.1,7.6-0.3,10.6l4.5,4.7
	v26.2H30.6L35.3,379.5z M482.2,467c0,16.5-13.5,30-30,30H60c-16.6,0-30-13.5-30-30v-11.6h37.1v1.8c0,7.7,2.9,15.1,8.2,20.8
	c1.5,1.6,3.5,2.4,5.5,2.4c1.8,0,3.7-0.7,5.1-2c3-2.8,3.2-7.6,0.3-10.6c-2.7-2.9-4.2-6.6-4.2-10.5v-27.3l20.1,21.1v3.6
	c0,16.2,13.1,29.3,29.3,29.3h31.6c4.1,0,7.5-3.4,7.5-7.5c0-4.1-3.4-7.5-7.5-7.5h-31.6c-7.6,0-13.8-5.9-14.3-13.4h62.2
	c0.4,0,0.7,0,1.1-0.1h151.2c0.4,0.1,0.7,0.1,1.1,0.1h63.7c-0.5,7.5-6.7,13.4-14.3,13.4h-187c-4.1,0-7.5,3.4-7.5,7.5
	c0,4.1,3.4,7.5,7.5,7.5h187c16.2,0,29.3-13.1,29.3-29.3v-4.9c0-0.1,0-0.2,0-0.3l18.6-19.5v27.3c0,3.9-1.5,7.6-4.2,10.5
	c-2.8,3-2.7,7.8,0.3,10.6c1.4,1.4,3.3,2,5.1,2c2,0,4-0.8,5.5-2.4c5.3-5.6,8.2-13,8.2-20.8v-1.8h37.1V467z"/>
<path class="st0" d="M44.6,223h1.3c5.2,11.1,16.5,18.3,28.8,18.3c12.4,0,23.6-7.1,28.8-18.3h107.7c9.3,0,17.3-6,20.2-14.4
	c6.4,4.6,14.2,7.3,22.4,7.3c10.1,0,19.6-4,26.6-10.9c1.7,10.2,10.5,18,21.1,18h107.7c5.2,11.1,16.4,18.3,28.8,18.3
	c12.4,0,23.6-7.1,28.8-18.3h1.3c11.8,0,21.4-9.6,21.4-21.4V83.7c0-11.8-9.6-21.4-21.4-21.4h-60.8c-4.1,0-7.5,3.4-7.5,7.5
	c0,4.1,3.4,7.5,7.5,7.5h60.8c3.5,0,6.4,2.9,6.4,6.4v117.9c0,3.5-2.9,6.4-6.4,6.4h-2.2c-5.4,0-10.3,3.2-12.5,8.1
	c-2.7,6.2-8.8,10.1-15.5,10.1c-6.7,0-12.8-4-15.5-10.1c-2.2-4.9-7-8.1-12.5-8.1H301.4c-3.5,0-6.4-2.9-6.4-6.4V193h63.1
	c13.7,0,24.9-11.2,24.9-24.9V24.9C383,11.2,371.9,0,358.1,0H149.3c-13.7,0-24.9,11.2-24.9,24.9v37.4H44.6
	c-11.8,0-21.4,9.6-21.4,21.4v10.6c0,4.1,3.4,7.5,7.5,7.5c4.1,0,7.5-3.4,7.5-7.5V83.7c0-3.5,2.9-6.4,6.4-6.4h79.8V168
	c0,13.7,11.2,24.9,24.9,24.9h68.2v8.6c0,3.5-2.9,6.4-6.4,6.4H102.6c-5.4,0-10.3,3.2-12.5,8.1c-2.7,6.1-8.7,10.1-15.4,10.1
	c-6.7,0-12.8-4-15.5-10.1c-2.2-4.9-7-8.1-12.5-8.1h-2.2c-3.5,0-6.4-2.9-6.4-6.4v-75.6c0-4.1-3.4-7.5-7.5-7.5c-4.1,0-7.5,3.4-7.5,7.5
	v75.6C23.2,213.4,32.8,223,44.6,223z M139.4,168V24.9c0-5.5,4.5-9.9,9.9-9.9h208.8c5.5,0,9.9,4.4,9.9,9.9V168c0,5.5-4.4,9.9-9.9,9.9
	h-69.4c-0.9,0-1.7,0.1-2.6,0.2c-0.1,0-0.1,0-0.2,0c-4.9,0.9-9.1,4.2-11.1,8.8c-3.7,8.4-11.9,13.8-21.1,13.8
	c-9.2,0-17.5-5.4-21.1-13.8c-2.4-5.5-7.8-9.1-13.9-9.1h-69.4C143.8,178,139.4,173.5,139.4,168z"/>
<path class="st0" d="M170.6,57.8h162.2c4.1,0,7.5-3.4,7.5-7.5s-3.4-7.5-7.5-7.5H170.6c-4.1,0-7.5,3.4-7.5,7.5S166.4,57.8,170.6,57.8
	z"/>
<path class="st0" d="M170.6,96.3h162.2c4.1,0,7.5-3.4,7.5-7.5c0-4.1-3.4-7.5-7.5-7.5H170.6c-4.1,0-7.5,3.4-7.5,7.5
	C163.1,92.9,166.4,96.3,170.6,96.3z"/>
<path class="st0" d="M265.6,127.3c0-4.1-3.4-7.5-7.5-7.5h-87.5c-4.1,0-7.5,3.4-7.5,7.5c0,4.1,3.4,7.5,7.5,7.5h87.5
	C262.2,134.8,265.6,131.5,265.6,127.3z"/>
</svg>
