<?xml version="1.0" encoding="utf-8"?>
<!-- Generator: Adobe Illustrator 23.0.4, SVG Export Plug-In . SVG Version: 6.00 Build 0)  -->
<svg version="1.1" id="Layer_1" xmlns="http://www.w3.org/2000/svg" xmlns:xlink="http://www.w3.org/1999/xlink" x="0px" y="0px"
	 viewBox="0 0 480 480" style="enable-background:new 0 0 480 480;" xml:space="preserve">
<style type="text/css">
	.st0{fill:#FFFFFF;}
</style>
<path class="st0" d="M320,328h-37.8c20-17.6,27.1-45.7,17.7-70.7c-9.4-24.9-33.2-41.5-59.9-41.5s-50.5,16.5-59.9,41.5
	c-9.4,24.9-2.3,53.1,17.7,70.7H160c-22.1,0-40,17.9-40,40v104c0,4.4,3.6,8,8,8s8-3.6,8-8V368c0-13.3,10.7-24,24-24h36.7l35.3,35.3
	V472c0,4.4,3.6,8,8,8s8-3.6,8-8v-92.7l35.3-35.3H320c13.3,0,24,10.7,24,24v104c0,4.4,3.6,8,8,8s8-3.6,8-8V368
	C360,345.9,342.1,328,320,328z M192,280c0-26.5,21.5-48,48-48s48,21.5,48,48s-21.5,48-48,48C213.5,328,192,306.5,192,280z
	 M240,364.7L219.3,344h41.4L240,364.7z"/>
<path class="st0" d="M176,392c-4.4,0-8,3.6-8,8v72c0,4.4,3.6,8,8,8s8-3.6,8-8v-72C184,395.6,180.4,392,176,392z"/>
<path class="st0" d="M304,392c-4.4,0-8,3.6-8,8v72c0,4.4,3.6,8,8,8s8-3.6,8-8v-72C312,395.6,308.4,392,304,392z"/>
<path class="st0" d="M432,256h-37.8c18.9-16.6,26.4-42.7,19-66.8S385,147.7,360,144.6V112h32c8.8,0,16-7.2,16-16V16
	c0-8.8-7.2-16-16-16H88c-8.8,0-16,7.2-16,16v16c0,4.4,3.6,8,8,8s8-3.6,8-8V16h304v80h-40c-4.4,0-8,3.6-8,8v25.9l-25.8-31
	c-1.5-1.8-3.8-2.9-6.2-2.9h-40c-3.2,0-6,1.9-7.3,4.8L240,156.3l-24.7-55.6c-1.3-2.9-4.1-4.8-7.3-4.8h-32c-2.4,0-4.6,1-6.2,2.9
	l-25.8,31V104c0-4.4-3.6-8-8-8H88V80c0-4.4-3.6-8-8-8s-8,3.6-8,8v16c0,8.8,7.2,16,16,16h40v32c-26.6,0-50.5,16.4-59.9,41.4
	c-9.4,24.9-2.3,53.1,17.7,70.6H48c-22.1,0-40,17.9-40,40v120c0,17.7,14.3,32,32,32c5.6,0,11.2-1.6,16-4.4V472c0,4.4,3.6,8,8,8
	s8-3.6,8-8v-64h16c4.4,0,8-3.6,8-8s-3.6-8-8-8H72v-64c0-4.4-3.6-8-8-8s-8,3.6-8,8v64H24v-96c0-13.3,10.7-24,24-24h36.7l37.7,37.7
	c3.1,3,8.1,3,11.2-0.1s3.1-8.1,0.1-11.2L107.3,272H144c4.4,0,8-3.6,8-8s-3.6-8-8-8h-16c-26.5,0-48-21.5-48-48s21.5-48,48-48
	s48,21.5,48,48c0,4.4,3.6,8,8,8s8-3.6,8-8c0-26.9-16.9-50.9-42.2-60.1l29.9-35.9h23.1l29.9,67.2c1.3,2.9,4.1,4.8,7.3,4.8
	s6-1.9,7.3-4.8l29.9-67.2h31.1l28.3,34c-28.5,7.1-48.5,32.7-48.6,62c0,4.4,3.6,8,8,8s8-3.6,8-8c0-26.5,21.5-48,48-48s48,21.5,48,48
	s-21.5,48-48,48h-16c-4.4,0-8,3.6-8,8s3.6,8,8,8h36.7l-26.3,26.3c-2.1,2-2.9,5-2.2,7.8c0.7,2.8,2.9,5,5.7,5.7
	c2.8,0.7,5.8-0.1,7.8-2.2l37.7-37.7H432c13.3,0,24,10.7,24,24v96h-32v-64c0-4.4-3.6-8-8-8s-8,3.6-8,8v64h-16c-4.4,0-8,3.6-8,8
	s3.6,8,8,8h16v64c0,4.4,3.6,8,8,8s8-3.6,8-8v-28.4c4.8,2.9,10.4,4.4,16,4.4c17.7,0,32-14.3,32-32V296C472,273.9,454.1,256,432,256z
	 M56,408v8c0,8.8-7.2,16-16,16s-16-7.2-16-16v-8H56z M456,416c0,8.8-7.2,16-16,16s-16-7.2-16-16v-8h32V416z"/>
<path class="st0" d="M120,48h48c4.4,0,8-3.6,8-8s-3.6-8-8-8h-48c-4.4,0-8,3.6-8,8S115.6,48,120,48z"/>
<path class="st0" d="M280,32h-64c-4.4,0-8,3.6-8,8s3.6,8,8,8h64c4.4,0,8-3.6,8-8S284.4,32,280,32z"/>
<path class="st0" d="M368,48c4.4,0,8-3.6,8-8s-3.6-8-8-8h-40c-4.4,0-8,3.6-8,8s3.6,8,8,8H368z"/>
<path class="st0" d="M120,80h56c4.4,0,8-3.6,8-8s-3.6-8-8-8h-56c-4.4,0-8,3.6-8,8S115.6,80,120,80z"/>
<path class="st0" d="M240,72c0,4.4,3.6,8,8,8h96c4.4,0,8-3.6,8-8s-3.6-8-8-8h-96C243.6,64,240,67.6,240,72z"/>
</svg>
