<?xml version="1.0" encoding="utf-8"?>
<!-- Generator: Adobe Illustrator 23.0.4, SVG Export Plug-In . SVG Version: 6.00 Build 0)  -->
<svg version="1.1" id="Layer_1" xmlns="http://www.w3.org/2000/svg" xmlns:xlink="http://www.w3.org/1999/xlink" x="0px" y="0px"
	 viewBox="0 0 500 500" style="enable-background:new 0 0 500 500;" xml:space="preserve">
<style type="text/css">
	.st0{fill:#FFFFFF;}
</style>
<path class="st0" d="M175,35.9c0-16.4-13.3-29.6-29.6-29.6h-0.7c-16.4,0-29.6,13.3-29.6,29.6v9.7c0,16.4,13.3,29.6,29.6,29.6h0.7
	c16.4,0,29.6-13.3,29.6-29.6V35.9z M163.1,45.6c0,9.7-7.9,17.6-17.6,17.6h-0.7c-9.7,0-17.6-7.9-17.6-17.6v-9.7
	c0-9.7,7.9-17.6,17.6-17.6h0.7c9.7,0,17.6,7.9,17.6,17.6V45.6z"/>
<path class="st0" d="M334,35.9c0-16.4-13.3-29.6-29.6-29.6h-0.7c-16.4,0-29.6,13.3-29.6,29.6v9.7c0,16.4,13.3,29.6,29.6,29.6h0.7
	c16.4,0,29.6-13.3,29.6-29.6V35.9z M322,45.6c0,9.7-7.9,17.6-17.6,17.6h-0.7c-9.7,0-17.6-7.9-17.6-17.6v-9.7
	c0-9.7,7.9-17.6,17.6-17.6h0.7c9.7,0,17.6,7.9,17.6,17.6V45.6z"/>
<path class="st0" d="M258,59.6c0-18.9-15.3-34.3-34.3-34.3h-0.4c-18.9,0-34.3,15.3-34.3,34.3V71c0,18.9,15.3,34.3,34.3,34.3h0.4
	C242.6,105.3,258,90,258,71V59.6z M246,71c0,12.3-10,22.3-22.3,22.3h-0.4C211,93.2,201,83.3,201,71V59.6c0-12.3,10-22.3,22.3-22.3
	h0.4c12.3,0,22.3,10,22.3,22.3V71z"/>
<path class="st0" d="M276.4,244.1l5.2-5c7.2-7.1,11.3-16.7,11.4-26.8v-55.1c0.9-10-2.4-19.9-9.2-27.3c-6.7-7.4-16.3-11.7-26.3-11.7
	h-5.6c-2.5,0-4.8,1.7-5.6,4.1l-6.5,18.1l-11.6-12.3c-1.1-1.2-2.7-1.9-4.4-1.9h-0.1c-1.7,0-3.3,0.7-4.4,2l-10.5,11.7l-5.7-17.5
	c-0.8-2.5-3.1-4.2-5.7-4.2h-6.5c-10.1,0-19.8,4.3-26.6,11.8c-6.7,7.4-9.2,17.3-9.2,27.2v55c0.1,10.2,4.3,19.9,11.6,26.9l5.2,4.9
	c4.7,4.5,7.5,10.6,7.8,17.1l4.5,94.3c0.2,3.2,2.8,5.6,6,5.6h68c3.2,0.1,5.8-2.4,6-5.6l4.5-94.4C269,254.7,271.8,248.6,276.4,244.1z
	 M223.8,141.1l5.6,6l7.3,67.8l-12.6,12.6l-12.6-12.6l7.3-68.3L223.8,141.1z M256.8,260.4l-4.2,88.6H196l-4.2-88.6
	c-0.4-9.5-4.5-18.5-11.4-25.1l-5.3-4.9c-5-4.8-7.9-11.3-8-18.3v-55.3c0-0.2,0.2-0.4,0.2-0.6c-0.6-6.7,1.6-13.3,6.1-18.3
	s10.9-7.8,17.6-7.9h2.2l7.5,23.2c0.7,2.2,2.7,3.8,5,4.1h0.1l-6.3,58.8c-0.2,1.8,0.4,3.6,1.7,4.9l18.8,18.9c2.3,2.3,6.1,2.3,8.5,0
	l18.8-18.9c1.3-1.3,1.9-3.1,1.7-4.9l-6.3-58.8c0.2,0,0.4,0,0.6-0.1c2.1-0.5,3.7-2,4.4-3.9l8.4-23.4h1.4c6.7,0.1,13,2.9,17.5,7.9
	s6.6,11.6,6,18.2c0,0.2,0,0.5,0,0.7v55.4c0,6.9-2.8,13.4-7.8,18.2l-5.1,4.9C261.3,242,257.2,251,256.8,260.4z"/>
<path class="st0" d="M102.1,59.6c0-18.9-15.3-34.3-34.3-34.3h-0.4c-18.9,0-34.3,15.3-34.3,34.3V71c0,18.9,15.3,34.3,34.3,34.3h0.4
	c18.9,0,34.3-15.3,34.3-34.3C102.1,71,102.1,59.6,102.1,59.6z M90.1,71c0,12.3-10,22.3-22.3,22.3h-0.4c-12.3,0-22.3-10-22.3-22.3
	V59.6c0-12.3,10-22.3,22.3-22.3h0.4c12.3,0,22.3,10,22.3,22.3C90.1,59.6,90.1,71,90.1,71z"/>
<path class="st0" d="M102.1,118.2h-5.6c-2.5,0-4.8,1.7-5.6,4.1l-6.5,18.1l-11.6-12.3c-1.1-1.2-2.7-1.9-4.4-1.9h-0.1
	c-1.7,0-3.3,0.7-4.4,2l-10.5,11.7l-5.7-17.5c-0.8-2.5-3.1-4.2-5.7-4.2h-6.5c-10,0-19.5,4.3-26.3,11.7c-6.7,7.4-10,17.3-9.1,27.3v55
	c0,10.1,4.1,19.8,11.4,26.9l5.1,4.9c4.7,4.5,7.4,10.6,7.7,17.1l4.5,94.3c0.2,3.2,2.8,5.7,6,5.6h68c3.2,0.1,5.8-2.4,6-5.6l4.5-94.4
	c0.3-6.4,3-12.5,7.7-17l4.9-5c7.2-7.1,11.2-16.7,11.1-26.8v-55.1c1-9.9-2.2-19.8-8.9-27.2C121.6,122.6,112.1,118.3,102.1,118.2z
	 M68.5,141.1l5.6,6l7.3,67.8l-12.6,12.6l-12.6-12.6l7.3-68.3L68.5,141.1z M125.3,156.3c0,0.2-0.2,0.4-0.2,0.6v55.4
	c0.1,6.8-2.6,13.4-7.5,18.2l-5,5c-6.8,6.6-10.8,15.5-11.2,24.9L97.2,349H40.6l-4.2-88.6C36,251,31.9,242,25,235.4l-5.1-4.9
	c-4.9-4.8-7.7-11.4-7.8-18.3v-55.3c0-0.2,0-0.4,0-0.6c-0.7-6.6,1.5-13.3,5.9-18.2c4.5-5,10.8-7.8,17.5-7.9h2.2l7.5,23.2
	c0.7,2.2,2.7,3.8,5,4.1h0.1l-6.3,59c-0.2,1.8,0.4,3.6,1.7,4.9l18.8,18.9c2.3,2.3,6.1,2.3,8.5,0l18.8-18.9c1.3-1.3,1.9-3.1,1.7-4.9
	l-6.3-58.8c0.2,0,0.4,0,0.6-0.1c2.1-0.5,3.7-2,4.4-3.9l8.4-23.4h1.4c6.6,0,13,2.9,17.4,7.9C123.9,143.1,126.1,149.7,125.3,156.3z"/>
<path class="st0" d="M412.9,59.6c0-18.9-15.3-34.3-34.3-34.3h-0.4c-18.9,0-34.3,15.3-34.3,34.3V71c0,18.9,15.3,34.3,34.3,34.3h0.4
	c18.9,0,34.3-15.3,34.3-34.3V59.6z M400.9,71c0,12.3-10,22.3-22.3,22.3h-0.4c-12.3,0-22.3-10-22.3-22.3V59.6
	c0-12.3,10-22.3,22.3-22.3h0.4c12.3,0,22.3,10,22.3,22.3V71z"/>
<path class="st0" d="M495.5,371.1l-19.4-4.9c-1-8.5-3.1-16.8-6.3-24.7l14.8-13.2c2.3-2.1,2.7-5.6,0.8-8l-19.3-26.1
	c-1.8-2.5-5.3-3.2-7.9-1.6l-17,10.2c-5.7-4.7-12-8.6-18.6-11.8l1.4-29.9c0.3-6.4,3-12.5,7.7-17l5-5c7.2-7.1,11.2-16.7,11.2-26.8
	v-55.1c1-9.9-2.2-19.8-8.9-27.2c-6.7-7.4-16.2-11.7-26.1-11.8h-5.6c-2.5,0-4.8,1.7-5.6,4.1l-6.5,18.1l-11.6-12.3
	c-1.2-1.2-2.8-1.9-4.4-1.9c-1.7,0-3.3,0.7-4.4,2l-10.5,11.7l-5.7-17.5c-0.8-2.5-3.1-4.2-5.7-4.2h-6.5c-10,0.1-19.5,4.3-26.2,11.7
	s-10,17.3-9,27.3v55c0,10.1,4.1,19.8,11.4,26.9l5.1,4.9c4.7,4.5,7.4,10.6,7.7,17.1l0.7,14l-1.1-1.2c-2.1-2.3-5.5-2.7-8-0.8
	l-26.2,19.2c-2.5,1.8-3.2,5.3-1.6,7.9l10.2,16.9c-5.4,6.6-9.9,13.9-13.4,21.7l-20-1.1c-3.1-0.2-5.8,2-6.3,5.1l-4.9,32.1
	c-0.5,3.1,1.5,6,4.5,6.7l19.4,4.9c0.9,8.5,3.1,16.8,6.3,24.7l-15,13.3c-2.3,2.1-2.7,5.6-0.8,8l19.3,26.1c1.8,2.5,5.3,3.2,7.9,1.6
	l17.1-10.2c6.6,5.4,14,9.9,21.8,13.4l-1.1,19.9c-0.2,3.1,2,5.8,5.1,6.3l31,4.7c3.1,0.5,6-1.5,6.7-4.5l4.9-19.3
	c8.5-1,16.9-3.1,24.8-6.3l13.2,14.8c2.1,2.3,5.5,2.7,8,0.8l26.2-19.2c2.5-1.8,3.2-5.3,1.6-7.9l-10.2-16.9
	c5.4-6.6,9.9-13.9,13.4-21.8l20,1.1c3.1,0.2,5.8-2,6.3-5.1l4.9-32.1C500.4,374.8,498.5,371.9,495.5,371.1z M379.2,141.1l5.6,6
	l7.3,67.8l-12.6,12.6L367,214.9l7.3-68.3L379.2,141.1z M330.7,230.6c-4.9-4.8-7.7-11.4-7.7-18.3V157c0-0.2,0-0.4-0.1-0.6
	c-0.7-6.6,1.5-13.3,5.9-18.2c4.5-5,10.8-7.8,17.5-7.9h2.2l7.5,23.2c0.7,2.1,2.5,3.7,4.7,4.1c0.1,0,0.2,0.1,0.4,0.1l-6.3,58.8
	c-0.2,1.8,0.4,3.6,1.7,4.9l18.8,18.9c2.3,2.3,6.1,2.3,8.5,0l18.8-18.8c1.3-1.3,1.9-3.1,1.7-4.9l-6.3-58.8c0.2,0,0.4,0,0.6-0.1
	c2.1-0.5,3.7-2,4.4-3.9l8.4-23.4h1.4c6.7,0,13,2.9,17.4,7.8c4.4,5,6.6,11.6,5.8,18.2c0,0.2-0.2,0.5-0.2,0.7v55.4
	c0,6.8-2.7,13.4-7.5,18.2l-5,5c-6.8,6.6-10.8,15.6-11.2,25l-0.1,2.4l-27.6-4.2c-3-0.5-6,1.5-6.7,4.5l-4.9,19.3
	c-8.3,0.9-16.5,3-24.3,6.1l-1.3-27.9c-0.4-9.5-4.5-18.5-11.4-25.1L330.7,230.6z M484,402.8l-18.8-1c-2.6-0.1-5,1.4-5.9,3.8
	c-3.6,9.4-8.9,18-15.7,25.4c-1.8,2-2.1,4.9-0.7,7.1l9.6,16l-17.4,12.7l-12.5-13.9c-1.7-1.9-4.5-2.5-6.9-1.5
	c-9.2,4.2-19.1,6.7-29.1,7.4c-2.6,0.2-4.8,2-5.4,4.5l-4.6,18.2l-20.3-3.1l1-18.7c0.1-2.6-1.4-5-3.9-5.9c-9.4-3.6-18.1-8.9-25.6-15.7
	c-2-1.7-4.8-2-7-0.6l-16.1,9.6L292,429.8l13.9-12.4c2-1.8,2.6-4.6,1.4-7c-4.2-9.1-6.7-18.9-7.3-28.9c-0.2-2.6-2-4.8-4.5-5.4
	l-18.2-4.6l3.3-21.3l18.8,1c2.6,0.1,5-1.4,5.9-3.8c3.7-9.4,9-18,15.7-25.5c1.7-2,2-4.8,0.6-7.1l-9.6-16l17.4-12.7l12.5,13.9
	c1.8,2,4.6,2.5,7,1.4c9.2-4.2,19-6.7,29.1-7.3c2.6-0.2,4.8-2,5.4-4.5l4.6-18.2l20.3,3.1l-1,18.7c-0.1,2.6,1.4,5,3.9,5.9
	c9.4,3.6,18.1,8.9,25.6,15.6c2,1.8,4.8,2.1,7.1,0.7l16.1-9.6l12.8,17.3l-13.9,12.4c-2,1.7-2.6,4.6-1.5,6.9c4.2,9.1,6.7,19,7.4,29
	c0.2,2.6,2,4.8,4.5,5.4l18.2,4.6L484,402.8z"/>
<path class="st0" d="M393.5,306c-39-5.9-75.4,20.8-81.5,59.8c-2.8,18.7,1.9,37.8,13.2,53.1c11.3,15.2,28.1,25.4,46.8,28.2
	c39,5.9,75.5-20.8,81.5-59.8c2.8-18.7-1.9-37.8-13.2-53.1C429.1,318.9,412.2,308.8,393.5,306z M441.6,385.4
	c-3.7,23.8-21.4,43-44.8,48.7s-47.9-3.2-62.2-22.5c-9.3-12.6-13.3-28.5-10.8-44c3.7-23.8,21.4-43,44.8-48.7s47.9,3.2,62.2,22.5
	C440.1,354.1,444,369.9,441.6,385.4z"/>
</svg>
