<?xml version="1.0" encoding="utf-8"?>
<!-- Generator: Adobe Illustrator 23.0.4, SVG Export Plug-In . SVG Version: 6.00 Build 0)  -->
<svg version="1.1" id="Layer_1" xmlns="http://www.w3.org/2000/svg" xmlns:xlink="http://www.w3.org/1999/xlink" x="0px" y="0px"
	 viewBox="0 0 66 66" style="enable-background:new 0 0 66 66;" xml:space="preserve">
<title>Asset 1</title>
<g>
	<g id="Layer_1-2">
		<path d="M65.2,13l-6.4-7.2c-0.8-0.9-2.2-1-3.1-0.3l-11.5,9.2H6c-3.2,0-5.8,2.6-5.8,5.8v34.7c0,3.2,2.6,5.8,5.8,5.8l0,0h41.7
			c3.2,0,5.8-2.6,5.8-5.8v-30L65,16c0.4-0.3,0.7-0.9,0.8-1.4C65.8,14,65.6,13.4,65.2,13z M50.8,55.2c0,1.7-1.4,3.1-3.2,3.2H6
			c-1.7,0-3.1-1.4-3.2-3.2V20.5c0-1.7,1.4-3.1,3.2-3.2h35L23.2,31.6l-4.8,11.8c-0.2,0.3-0.1,0.7,0.1,1c0.2,0.2,0.5,0.3,0.7,0.3h0.2
			L32.4,42l18.4-14.7V55.2z M22.2,41.9L22.2,41.9c-0.2,0-0.3,0-0.5-0.2c-0.1-0.1-0.1-0.3-0.1-0.4l2.3-6.2l5,5.6L22.2,41.9z
			 M62.5,14.3c0,0.4-0.2,0.8-0.6,1.1L32.6,38.9L26.5,32L55.8,8.5c0.7-0.6,1.8-0.5,2.4,0.2l3.9,4.4C62.4,13.4,62.6,13.8,62.5,14.3
			L62.5,14.3z"/>
	</g>
</g>
</svg>
