<?xml version="1.0" encoding="utf-8"?>
<!-- Generator: Adobe Illustrator 23.0.4, SVG Export Plug-In . SVG Version: 6.00 Build 0)  -->
<svg version="1.1" id="Layer_1" xmlns="http://www.w3.org/2000/svg" xmlns:xlink="http://www.w3.org/1999/xlink" x="0px" y="0px"
	 viewBox="0 0 80 88" style="enable-background:new 0 0 80 88;" xml:space="preserve">
<title>Asset 1</title>
<g>
	<g id="Layer_1-2">
		<path d="M56.5,56.1c-2.3-0.5-4.7,0-6.6,1.4c-1.1,0.7-1.8,1.9-2,3.2c0,0.6,0.4,1,1,1s1-0.4,1-1c0.2-0.7,0.6-1.3,1.2-1.7
			c1.4-1.1,3.3-1.5,5-1c2.9,0.6,4.1,3.5,3.9,6c-0.2,2.1-1.5,3.7-4.1,5.1c-2.2,1.1-3.4,3.5-3.1,5.9c0.1,0.5,0.5,0.8,1,0.8H54
			c0.5-0.1,0.9-0.7,0.8-1.2c-0.2-1.6,0.6-3.1,2.1-3.7c3.2-1.7,4.9-3.9,5.2-6.7C62.4,61,60.6,56.9,56.5,56.1z M53.8,77
			c-0.5,0-1,0.4-1,0.9c0,0,0,0.1,0,0.1v0.7c0,0.6,0.4,1,1,1s1-0.4,1-1V78C54.8,77.4,54.4,77,53.8,77z M62.2,49
			c-0.9-0.4-1.8-0.6-2.7-0.9V15.8l0,0c0-0.3-0.1-0.5-0.3-0.7L44.4,0.3C44.2,0.1,44,0,43.7,0H8.1c-1.7,0-3,1.3-3,3v67.9
			c0,1.7,1.3,3,3,3h27.2c3.4,10.7,14.8,16.6,25.4,13.2S77.3,72.4,74,61.7C72.1,55.9,67.8,51.3,62.2,49z M44.6,3.3L56,14.8H44.6V3.3z
			 M34.8,71.9H8.1c-0.5,0-1-0.4-1-0.9c0,0,0-0.1,0-0.1V3c0-0.5,0.4-1,0.9-1c0,0,0.1,0,0.1,0h34.5v13.8c0,0.5,0.4,1,0.9,1
			c0,0,0.1,0,0.1,0h13.8v30.9c-0.9-0.1-1.9-0.2-2.8-0.2c-10.2,0-18.8,7.6-20.1,17.7c-0.1,0.8-0.2,1.7-0.2,2.5
			C34.4,69.1,34.5,70.5,34.8,71.9z M54.6,86c-10.1,0-18.3-8.2-18.3-18.3c0-0.8,0-1.5,0.1-2.3c1.1-9.1,8.9-16,18.1-16
			c2.3,0,4.6,0.4,6.8,1.3c9.4,3.8,13.9,14.4,10.2,23.8C68.7,81.4,62,85.9,54.6,86z M15.6,24.8h33.3c0.6,0,1-0.4,1-1s-0.4-1-1-1H15.6
			c-0.5,0-1,0.4-1,0.9c0,0,0,0.1,0,0.1C14.6,24.4,15,24.8,15.6,24.8z M15.6,31.7h33.3c0.6,0,1-0.4,1-1s-0.4-1-1-1H15.6
			c-0.5,0-1,0.4-1,0.9c0,0,0,0.1,0,0.1C14.6,31.3,15,31.7,15.6,31.7C15.6,31.7,15.6,31.7,15.6,31.7z M35,51.2c0-0.5-0.4-1-0.9-1
			c0,0-0.1,0-0.1,0H15.6c-0.6,0-1,0.4-1,1s0.4,1,1,1H34C34.5,52.2,35,51.7,35,51.2z M29.2,57H15.6c-0.6,0-1,0.4-1,1s0.4,1,1,1h13.6
			c0.6,0,1-0.4,1-1S29.8,57,29.2,57z M15.6,45.3h33.3c0.6,0,1-0.4,1-1s-0.4-1-1-1H15.6c-0.5,0-1,0.4-1,0.9c0,0,0,0.1,0,0.1
			C14.6,44.9,15,45.3,15.6,45.3z M15.6,38.5h33.3c0.6,0,1-0.4,1-1s-0.4-1-1-1H15.6c-0.5,0-1,0.4-1,0.9c0,0,0,0.1,0,0.1
			C14.6,38.1,15,38.5,15.6,38.5z"/>
	</g>
</g>
</svg>
